<svg width="120" height="120" xmlns="http://www.w3.org/2000/svg"><defs><linearGradient x1="50%" y1="0%" x2="50%" y2="100%" id="a"><stop stop-color="#FFF" offset="0%"/><stop stop-color="#FFF" stop-opacity=".5" offset="100%"/></linearGradient></defs><g fill="none"><g transform="translate(10.081)"><path d="M83.698 84.028A49.193 49.193 0 0092.09 72.82a48.808 48.808 0 005.967-23.46C98.057 22.286 76.109.337 49.033.337S.008 22.286.008 49.36c0 13.716 5.633 26.117 14.71 35.015 0 0 12.383-5.809 13.552-6.06 1.17-.25 13.65.033 20.763.033 4.731 0 14.302-.814 21.156-.149l13.51 5.828z" fill="#4DB6B6"/><path d="M70.751 79.438c9.316-6.738 15.378-17.7 15.378-30.077 0-20.488-16.608-37.096-37.096-37.096-20.488 0-37.096 16.608-37.096 37.096 0 12.368 6.052 23.322 15.355 30.062l22.034 7.411 21.425-7.396z" fill="#FFF"/><circle fill="#FFB721" cx="49.033" cy="49.361" r="27.495"/><path d="M49.325 86.496H49.3c-6.482-.148-11.248-3.588-11.447-3.734-.357-.24-9.652-6.368-20.325.057-.622.375-1.024.607-1.324.78-.552.318-.719.414-1.352.883a1.147 1.147 0 01-1.362-1.842 12.7 12.7 0 011.568-1.025c.293-.169.683-.394 1.288-.758 11.96-7.2 22.39-.264 22.83.034.073.053 4.425 3.174 10.15 3.314 5.757-.141 10.077-3.26 10.12-3.292.12-.086 11.37-7.986 22.922-.018 1.144.79 1.505 1.034 2.195 1.42a1.146 1.146 0 01-1.116 2c-.776-.433-1.218-.732-2.38-1.535-10.237-7.06-20.175-.083-20.274-.012-.19.14-4.956 3.58-11.44 3.728h-.027z" fill="#FFF"/><path d="M49.325 91.772l-.062-.002c-6.98-.16-12.143-3.886-12.36-4.044-.37-.267-9.353-6.59-18.342 0a2.748 2.748 0 11-3.25-4.436c9.824-7.203 20.546-3.15 24.843 0 .03.023 4.001 2.84 9.171 2.98 5.172-.14 9.142-2.957 9.181-2.986 4.287-3.143 15.01-7.197 24.835.006a2.75 2.75 0 11-3.25 4.435c-9.069-6.646-18.25-.067-18.343 0-.216.16-5.377 3.886-12.36 4.045l-.063.002zm-3.689-64.145h7.053l14.052 36.535h-7.228l-2.858-7.526H41.747l-2.972 7.526h-7.228l14.09-36.535zm3.57 9.686l-4.902 12.543h9.775l-4.873-12.543z" fill="#002943"/><path d="M1.07 39.182C13.144 45.6 29.588 49.55 47.714 49.55c19.326 0 36.742-4.491 48.986-11.676C91.53 16.342 72.153.337 49.033.337 25.448.337 5.756 16.993 1.07 39.182z" fill="url(#a)" opacity=".5"/></g><path d="M15.237 99.407v14.364h-1.822v-2.469c-.775.942-1.644 1.65-2.607 2.126-.964.475-2.018.713-3.162.713-2.033 0-3.77-.737-5.208-2.211-1.44-1.475-2.158-3.268-2.158-5.38 0-2.068.725-3.837 2.178-5.307 1.452-1.47 3.199-2.205 5.24-2.205 1.18 0 2.247.25 3.202.753.955.501 1.793 1.254 2.515 2.257v-2.64h1.822zM7.85 100.82a5.578 5.578 0 00-2.849.758 5.562 5.562 0 00-2.077 2.13 5.83 5.83 0 00-.77 2.9c0 1.012.259 1.979.777 2.902a5.665 5.665 0 002.09 2.156 5.463 5.463 0 002.815.77c1.012 0 1.97-.254 2.875-.764a5.345 5.345 0 002.09-2.07c.488-.87.732-1.85.732-2.941 0-1.661-.547-3.05-1.642-4.167-1.094-1.116-2.441-1.674-4.041-1.674zm11.545-1.413h1.848v2.574c.74-.985 1.558-1.722 2.456-2.21a6.039 6.039 0 012.93-.733c1.074 0 2.027.273 2.859.818a4.879 4.879 0 011.842 2.205c.395.924.593 2.363.593 4.317v7.393h-1.848v-6.852c0-1.654-.068-2.759-.205-3.313-.214-.95-.625-1.666-1.233-2.146-.607-.479-1.4-.719-2.376-.719-1.118 0-2.12.37-3.004 1.11a5.19 5.19 0 00-1.75 2.745c-.176.713-.264 2.015-.264 3.908v5.267h-1.848V99.407zm14.945 0h1.954l4.936 11.06 4.793-11.06h1.967l-8.568 19.618H37.47l2.765-6.342z" fill="#002943"/><path d="M57.6 100.978l-1.188 1.228c-.988-.96-1.955-1.44-2.898-1.44-.6 0-1.115.199-1.542.595-.428.396-.642.858-.642 1.386 0 .467.176.91.53 1.333.352.431 1.092.938 2.222 1.518 1.375.713 2.31 1.4 2.805 2.06.484.668.727 1.421.727 2.257 0 1.18-.414 2.179-1.243 2.997-.829.818-1.864 1.228-3.107 1.228-.829 0-1.62-.18-2.374-.542a5.152 5.152 0 01-1.87-1.492l1.161-1.32c.944 1.065 1.945 1.597 3.004 1.597.74 0 1.371-.237 1.892-.712.52-.476.78-1.035.78-1.677 0-.528-.171-1-.515-1.413-.344-.405-1.12-.915-2.329-1.531-1.296-.669-2.178-1.329-2.646-1.98a3.73 3.73 0 01-.7-2.231c0-1.091.371-1.998 1.117-2.72.744-.721 1.685-1.082 2.823-1.082 1.322 0 2.654.648 3.993 1.94zm3.037-1.571h1.848v6.707c0 1.637.088 2.764.264 3.38.265.88.77 1.575 1.514 2.085.745.51 1.633.766 2.664.766 1.031 0 1.906-.248 2.625-.746a3.817 3.817 0 001.487-1.96c.185-.554.277-1.73.277-3.525v-6.706h1.888v7.05c0 1.98-.23 3.472-.693 4.475a5.292 5.292 0 01-2.086 2.357c-.928.567-2.092.851-3.492.851-1.399 0-2.567-.284-3.505-.851a5.248 5.248 0 01-2.098-2.377c-.463-1.016-.694-2.545-.694-4.587v-6.919zm15.973 0h1.888v2.1c.564-.828 1.158-1.446 1.783-1.855.625-.41 1.276-.614 1.954-.614.51 0 1.056.162 1.637.488l-.964 1.557c-.388-.167-.713-.25-.977-.25-.616 0-1.21.253-1.782.758-.572.506-1.008 1.292-1.307 2.357-.23.819-.344 2.473-.344 4.964v4.858H76.61V99.407zm16.04-5.544v1.808c-.677-.29-1.258-.435-1.742-.435-.36 0-.66.072-.898.218-.237.144-.387.312-.449.501-.061.19-.092.693-.092 1.512l-.001 1.94h2.998v1.598h-3l-.01 12.765h-1.848v-12.765H85.72v-1.598h1.888v-2.244c0-1.03.094-1.764.284-2.205.188-.44.51-.793.964-1.062.453-.268 1-.403 1.643-.403.598 0 1.315.124 2.152.37zm14.667 15.142l1.558.818c-.511 1.004-1.1 1.813-1.77 2.43a7.03 7.03 0 01-2.26 1.405c-.837.321-1.784.482-2.841.482-2.343 0-4.175-.768-5.497-2.304-1.321-1.535-1.982-3.271-1.982-5.208 0-1.821.56-3.445 1.678-4.87 1.418-1.814 3.316-2.72 5.695-2.72 2.45 0 4.404.928 5.867 2.785 1.04 1.311 1.568 2.949 1.585 4.91H96.427c.034 1.67.568 3.037 1.598 4.104 1.031 1.067 2.304 1.6 3.82 1.6.732 0 1.443-.127 2.135-.381.691-.255 1.28-.592 1.765-1.013.484-.42 1.009-1.1 1.572-2.038zm0-3.868c-.246-.985-.606-1.774-1.077-2.363-.472-.59-1.095-1.065-1.87-1.426a5.731 5.731 0 00-2.446-.541c-1.41 0-2.622.453-3.635 1.36-.74.66-1.3 1.65-1.679 2.97h10.707zm4.779-5.73h1.888v2.1c.563-.828 1.157-1.446 1.782-1.855.625-.41 1.276-.614 1.954-.614.51 0 1.057.162 1.637.488l-.963 1.557c-.388-.167-.714-.25-.978-.25-.616 0-1.21.253-1.782.758-.572.506-1.008 1.292-1.307 2.357-.23.819-.344 2.473-.344 4.964v4.858h-1.887V99.407z" fill="#405F72"/></g></svg>